<?xml version="1.0" encoding="UTF-8" standalone="no"?>
<!-- Created with Inkscape (http://www.inkscape.org/) -->

<svg
   version="1.1"
   id="svg1256"
   width="324.97495"
   height="322.86981"
   viewBox="0 0 324.97494 322.86981"
   sodipodi:docname="logo_BRASLAR_.png"
   xmlns:inkscape="http://www.inkscape.org/namespaces/inkscape"
   xmlns:sodipodi="http://sodipodi.sourceforge.net/DTD/sodipodi-0.dtd"
   xmlns="http://www.w3.org/2000/svg"
   xmlns:svg="http://www.w3.org/2000/svg">
  <defs
     id="defs1260" />
  <sodipodi:namedview
     id="namedview1258"
     pagecolor="#ffffff"
     bordercolor="#000000"
     borderopacity="0.25"
     inkscape:showpageshadow="2"
     inkscape:pageopacity="0.0"
     inkscape:pagecheckerboard="0"
     inkscape:deskcolor="#d1d1d1"
     showgrid="false" />
  <g
     inkscape:groupmode="layer"
     inkscape:label="Image"
     id="g1262"
     transform="translate(-52.205311,-50.964547)">
    <g
       id="g1903"
       transform="matrix(0.75845838,0,0,0.76119704,51.857241,50.721618)">
      <path
         id="path1874"
         style="fill:#808080;stroke:none;stroke-width:0.32"
         d="m 96,198.72 -0.32,0.32 0.32,-0.32 M 189.44,1.92 c 22.34112,15.073824 19.28448,45.58528 13.55936,68.48 -9.60512,38.4112 -33.6304,69.2336 -62.19936,95.70848 -13.11968,12.15776 -28.47232,24.98848 -44.8,32.61152 33.86688,-33.86656 63.33952,-73.15392 74.59712,-120.64 2.21856,-9.35904 4.45696,-19.3408 1.74624,-28.8 -6.776,-23.643008 -36.9504,-26.117824 -56.82336,-20.88496 -4.02784,1.060576 -7.98528,2.342624 -11.84,3.92848 C 69.34272,46.4496 45.26112,76.99744 28.061248,108.8 -5.497088,170.8496 -9.883712,248.03136 22.80272,311.36 32.9472,331.0144 46.1248,349.1648 61.76,364.8 c 12.77792,12.7776 26.81152,24.5056 42.88,32.96 -2.10496,-7.3056 -6.33792,-14.2048 -8.84992,-21.44 -6.20928,-17.8848 -9.86048,-37.0368 -8.05568,-56 5.65664,-59.44096 49.89664,-106.91584 88.61408,-148.48 24.60128,-26.4096 50.27296,-53.39808 64.09856,-87.36 3.56992,-8.76992 7.19008,-18.67456 8.13824,-28.16 C 250.26624,39.51008 244.20224,21.243584 230.72,10.627424 226.84128,7.57312 222.53696,5.127072 217.92,3.384448 211.54496,0.9782016 205.16224,0.28761728 198.4,0.3202336 195.70336,0.3332416 191.78592,0.5055872 189.44,1.92" />
      <path
         style="fill:#4c5268;stroke:none;stroke-width:0.32"
         d="m 267.2,6.72 c 5.4272,11.610656 11.27904,21.885184 13.02976,34.88 5.3248,39.52992 -20.96256,75.19424 -44.26176,104.32 -26.37568,32.9712 -55.85408,63.74432 -78.54496,99.52 -11.58848,18.27072 -22.20192,37.38208 -27.22016,58.56 -7.76128,32.7552 -0.15104,68.432 23.7296,92.7968 7.25248,7.3984 16.03264,13.3856 25.26752,18.0032 7.78176,3.8912 16.05856,6.8768 24.64,8.4256 12.93728,2.3328 24.70464,1.1616 37.44,-1.4656 v -0.32 C 226.58176,415.4112 211.55008,407.1904 200,396.1472 191.1296,387.664 183.84064,378.2624 178.78208,367.04 c -3.21344,-7.1296 -5.26016,-14.7008 -6.54304,-22.4 -2.07168,-12.4352 -2.35968,-26.11264 0.71296,-38.4 6.14464,-24.57248 24.0192,-45.4832 40.08096,-64.32 17.16608,-20.13152 34.87712,-40.02528 49.58048,-62.08 6.03904,-9.05856 11.32064,-18.4288 16.1856,-28.16 2.47744,-4.95584 5.69568,-10.82752 6.64096,-16.32 1.49664,5.06336 -0.50464,12.47296 -1.35904,17.6 -2.7952,16.77152 -9.41728,32.33728 -16.46208,47.68 -20.76864,45.2304 -56.87776,90.15744 -47.3232,143.04 1.7328,9.5904 5.2688,18.8992 10.36384,27.2 4.29408,6.9952 9.70496,13.2256 16.06048,18.4256 5.17888,4.2368 11.09888,7.7984 17.28,10.3712 37.46688,15.5904 74.2272,-4.8896 100.1472,-31.9968 34.4832,-36.064 59.1744,-84.34976 63.9584,-134.4 C 434.6112,165.21408 401.8592,95.00608 351.04,50.78976 334.2496,36.18176 315.53088,23.96896 295.04,15.225152 286.28704,11.49008 276.68736,7.94512 267.2,6.72"
         id="path1858" />
    </g>
  </g>
</svg>
